<?xml version="1.0" encoding="UTF-8"?>
<svg xmlns="http://www.w3.org/2000/svg" width="960" height="360" viewBox="0 0 960 360" role="img" aria-labelledby="title desc">
  <title id="title">evo-subagent cumulative npm downloads</title>
  <desc id="desc">Cumulative npm downloads for evo-subagent since its first release, generated automatically from the npm downloads API.</desc>
  <defs>
    <linearGradient id="background" x1="0" x2="1" y1="0" y2="1"><stop stop-color="#0b1020"/><stop offset="1" stop-color="#172554"/></linearGradient>
    <linearGradient id="line" x1="0" x2="1"><stop stop-color="#8b5cf6"/><stop offset="1" stop-color="#22d3ee"/></linearGradient>
    <linearGradient id="area" x1="0" x2="0" y1="0" y2="1"><stop stop-color="#38bdf8" stop-opacity=".36"/><stop offset="1" stop-color="#38bdf8" stop-opacity="0"/></linearGradient>
  </defs>
  <rect width="960" height="360" rx="18" fill="url(#background)"/>
  <text x="62" y="36" fill="#f8fafc" font-family="system-ui, sans-serif" font-size="22" font-weight="700">cumulative npm downloads</text>
  <text x="62" y="56" fill="#a5b4fc" font-family="system-ui, sans-serif" font-size="13">evo-subagent · since 2026-08-24 · 1,594 total</text>
  <g stroke="#64748b" stroke-opacity=".35" fill="#94a3b8" font-family="system-ui, sans-serif" font-size="12"><line x1="62" y1="292" x2="914" y2="292" /><text x="50" y="297" text-anchor="end">0</text><line x1="62" y1="180" x2="914" y2="180" /><text x="50" y="185" text-anchor="end">797</text><line x1="62" y1="68" x2="914" y2="68" /><text x="50" y="73" text-anchor="end">1594</text></g>
  <polygon points="62,292 62.00,274.29 80.13,273.17 98.26,271.90 116.38,270.92 134.51,269.94 152.64,267.97 170.77,266.85 188.89,265.16 207.02,263.47 225.15,262.35 243.28,262.35 261.40,261.37 279.53,259.96 297.66,258.84 315.79,258.84 333.91,258.84 352.04,257.15 370.17,254.76 388.30,233.96 406.43,229.75 424.55,227.50 442.68,225.67 460.81,225.67 478.94,223.56 497.06,220.61 515.19,218.79 533.32,195.32 551.45,189.84 569.57,188.57 587.70,185.06 605.83,183.09 623.96,181.41 642.09,179.44 660.21,175.22 678.34,171.85 696.47,146.27 714.60,136.86 732.72,128.85 750.85,120.84 768.98,111.28 787.11,103.41 805.23,95.96 823.36,87.67 841.49,87.67 859.62,78.12 877.74,68.00 895.87,68.00 914.00,68.00 914,292" fill="url(#area)"/>
  <polyline points="62.00,274.29 80.13,273.17 98.26,271.90 116.38,270.92 134.51,269.94 152.64,267.97 170.77,266.85 188.89,265.16 207.02,263.47 225.15,262.35 243.28,262.35 261.40,261.37 279.53,259.96 297.66,258.84 315.79,258.84 333.91,258.84 352.04,257.15 370.17,254.76 388.30,233.96 406.43,229.75 424.55,227.50 442.68,225.67 460.81,225.67 478.94,223.56 497.06,220.61 515.19,218.79 533.32,195.32 551.45,189.84 569.57,188.57 587.70,185.06 605.83,183.09 623.96,181.41 642.09,179.44 660.21,175.22 678.34,171.85 696.47,146.27 714.60,136.86 732.72,128.85 750.85,120.84 768.98,111.28 787.11,103.41 805.23,95.96 823.36,87.67 841.49,87.67 859.62,78.12 877.74,68.00 895.87,68.00 914.00,68.00" fill="none" stroke="url(#line)" stroke-width="4" stroke-linecap="round" stroke-linejoin="round"/>
  <g fill="#cbd5e1" font-family="system-ui, sans-serif" font-size="12"><text x="62" y="330" text-anchor="middle">08-24</text><text x="478.93617021276594" y="330" text-anchor="middle">09-16</text><text x="914" y="330" text-anchor="middle">10-10</text></g>
  <circle cx="914" cy="68" r="6" fill="#22d3ee" stroke="#e0f2fe" stroke-width="3"/>
</svg>
